<svg width="25" height="25" viewBox="0 0 25 25" fill="none" xmlns="http://www.w3.org/2000/svg">
<path d="M12.5806 0C19.5161 0 25.1613 5.64516 25 12.5806C25 19.3548 19.6774 24.8387 12.9032 25H12.5806C5.80645 25 0.16129 19.6774 0 12.9032V12.5806C0 5.64516 5.64516 0 12.5806 0ZM15.6452 13.7097H9.35484C9.67742 18.3871 11.2903 22.2581 12.4194 22.5806H12.5806C13.7097 22.5806 15.3226 18.7097 15.6452 14.1935V13.7097ZM22.5806 13.7097H18.0645C17.9032 16.9355 17.2581 19.8387 16.129 21.9355C19.5161 20.6452 21.9355 17.7419 22.4194 14.1935L22.5806 13.7097ZM6.93548 13.7097H2.41935C2.90323 17.4194 5.32258 20.4839 8.70968 21.9355C7.74194 20 7.09677 17.2581 6.77419 14.3548L6.93548 13.7097ZM8.87097 3.06452L8.70968 3.22581C5.32258 4.51613 2.90323 7.74194 2.41935 11.2903H6.77419C6.93548 8.3871 7.58065 5.64516 8.54839 3.54839L8.87097 3.06452ZM12.4194 2.41935C11.2903 2.41935 9.67742 6.45161 9.35484 11.2903H15.6452C15.3226 6.6129 13.7097 2.74194 12.4194 2.41935ZM16.129 3.06452C17.2581 5.16129 17.9032 8.06452 18.0645 11.2903H22.5806C22.0968 7.58065 19.6774 4.51613 16.129 3.06452Z" fill="#F1F1F1"/>
</svg>
