<svg width="50" height="42" viewBox="0 0 50 42" fill="none" xmlns="http://www.w3.org/2000/svg">
<path fill-rule="evenodd" clip-rule="evenodd" d="M0.0675676 26.4025H8.27703L35.3829 7.8542L49.9437 26.3249C49.9775 25.7591 50 25.1933 50 24.6276C50 11.0824 38.75 0 25 0C11.25 0 0 11.0824 0 24.6276C0 25.2266 0.0225225 25.8146 0.0675676 26.4025Z" fill="#133050"/>
<path fill-rule="evenodd" clip-rule="evenodd" d="M0.28125 28.3107H8.27675L35.2812 11.6039L49.7745 27.989C49.7182 28.3773 49.6506 28.7766 49.5718 29.1649L35.2812 14.2219L8.07404 29.6086H0.517736C0.427646 29.1871 0.348818 28.7544 0.28125 28.3107Z" fill="#133050"/>
<path fill-rule="evenodd" clip-rule="evenodd" d="M0.967773 31.4168H8.07363L35.2808 18.0713L49.2335 30.6624C49.1434 31.0507 49.0308 31.4279 48.9182 31.794L35.2808 20.6672L8.07363 32.7813H1.41822C1.26057 32.3375 1.10291 31.8827 0.967773 31.4168Z" fill="#133050"/>
<path fill-rule="evenodd" clip-rule="evenodd" d="M2.80361 35.9207H8.07388L35.2811 27.0681L47.8712 34.5451C48.0514 34.1569 48.209 33.7686 48.3667 33.3692L35.2811 24.439L8.07388 34.6117L2.12793 34.5341C2.34189 35.0111 2.55586 35.4659 2.80361 35.9207Z" fill="#133050"/>
<path fill-rule="evenodd" clip-rule="evenodd" d="M4.70666 38.9604H8.07377L35.281 33.5024L46.272 37.5293C46.5422 37.0967 46.8013 36.6529 47.049 36.2092L35.281 30.8954L8.07377 37.5848L3.77197 37.5959C4.06477 38.0618 4.38008 38.5166 4.70666 38.9604Z" fill="#133050"/>
<path fill-rule="evenodd" clip-rule="evenodd" d="M6.15967 40.7797H8.07408L35.2813 37.3851L44.8871 39.5151C44.4705 40.0587 44.02 40.5801 43.5583 41.0904L35.2813 39.981L8.07408 42H7.31958C6.92543 41.6007 6.53129 41.2013 6.15967 40.7797Z" fill="#133050"/>
</svg>
