<svg width="179" height="57" viewBox="0 0 179 57" fill="none" xmlns="http://www.w3.org/2000/svg">
<g clip-path="url(#clip0_52_35)">
<path fill-rule="evenodd" clip-rule="evenodd" d="M0.0937738 35.832H11.1165L47.5111 10.6593L67.0617 35.7266C67.1071 34.9588 67.1373 34.191 67.1373 33.4231C67.1373 15.0404 52.0321 0 33.5702 0C15.1083 0 0.00305176 15.0404 0.00305176 33.4231C0.00305176 34.2361 0.0332924 35.0341 0.0937738 35.832Z" fill="#133050"/>
<path fill-rule="evenodd" clip-rule="evenodd" d="M0.380737 38.4216H11.1162L47.3747 15.748L66.8346 37.985C66.759 38.5119 66.6683 39.0539 66.5624 39.5809L47.3747 19.3011L10.844 40.1831H0.698264C0.577302 39.611 0.471459 39.0238 0.380737 38.4216Z" fill="#133050"/>
<path fill-rule="evenodd" clip-rule="evenodd" d="M1.3031 42.6371H10.844L47.3748 24.5253L66.1088 41.6133C65.9879 42.1402 65.8367 42.6521 65.6855 43.1489L47.3748 28.0483L10.844 44.4889H1.90791C1.69623 43.8867 1.48454 43.2694 1.3031 42.6371Z" fill="#133050"/>
<path fill-rule="evenodd" clip-rule="evenodd" d="M3.76769 48.7496H10.844L47.3747 36.7353L64.2793 46.8827C64.5212 46.3558 64.7329 45.8288 64.9446 45.2868L47.3747 33.1672L10.844 46.973L2.86047 46.8677C3.14776 47.515 3.43505 48.1323 3.76769 48.7496Z" fill="#133050"/>
<path fill-rule="evenodd" clip-rule="evenodd" d="M6.32298 52.8748H10.844L47.3747 45.4675L62.1321 50.9326C62.495 50.3454 62.8428 49.7432 63.1754 49.141L47.3747 41.9294L10.844 51.0079L5.06799 51.0229C5.46112 51.6553 5.88449 52.2725 6.32298 52.8748Z" fill="#133050"/>
<path fill-rule="evenodd" clip-rule="evenodd" d="M8.27356 55.3439H10.844L47.3747 50.7369L60.2724 53.6276C59.7129 54.3653 59.1081 55.0729 58.4882 55.7655L47.3747 54.2599L10.844 57H9.83095C9.30174 56.458 8.77253 55.916 8.27356 55.3439Z" fill="#133050"/>
<path d="M95.028 12.7519H97.5833V17.6149C96.918 18.1117 96.162 18.4881 95.3001 18.744C94.4534 19.015 93.5764 19.1355 92.7146 19.1355C91.4596 19.1355 90.3407 18.8795 89.3427 18.3375C88.3448 17.8106 87.5585 17.0729 86.9991 16.1394C86.4245 15.1909 86.1372 14.122 86.1372 12.9326C86.1372 11.7583 86.4245 10.6893 86.9991 9.74085C87.5585 8.80741 88.3448 8.06969 89.3578 7.54275C90.3709 7.00075 91.5049 6.74481 92.7599 6.74481C93.8183 6.74481 94.7709 6.91042 95.6328 7.27175C96.4946 7.61803 97.2204 8.14497 97.795 8.80741L96.0108 10.4635C95.1489 9.56018 94.1207 9.10852 92.896 9.10852C92.1249 9.10852 91.4444 9.25908 90.8548 9.5903C90.2499 9.90646 89.7963 10.3581 89.4637 10.9302C89.131 11.5174 88.9647 12.1798 88.9647 12.9326C88.9647 13.6854 89.131 14.3478 89.4637 14.9199C89.7963 15.5071 90.2499 15.9588 90.8396 16.29C91.4293 16.6061 92.1097 16.7718 92.8658 16.7718C93.6671 16.7718 94.3929 16.6061 95.028 16.2599V12.7519ZM103.888 6.94053H106.671V16.6664H112.704V18.9397H103.888V6.94053ZM123.621 19.1355C122.381 19.1355 121.247 18.8645 120.249 18.3375C119.251 17.7955 118.464 17.0578 117.89 16.1093C117.33 15.1759 117.043 14.122 117.043 12.9326C117.043 11.7583 117.33 10.7044 117.89 9.75591C118.464 8.82247 119.251 8.08475 120.249 7.54275C121.247 7.01581 122.381 6.74481 123.621 6.74481C124.876 6.74481 125.994 7.01581 126.992 7.54275C127.99 8.08475 128.777 8.82247 129.351 9.75591C129.926 10.7044 130.213 11.7583 130.213 12.9326C130.213 14.122 129.926 15.1759 129.351 16.1093C128.777 17.0578 127.99 17.7955 126.992 18.3375C125.994 18.8645 124.876 19.1355 123.621 19.1355ZM123.621 16.7718C124.331 16.7718 124.981 16.6061 125.556 16.29C126.13 15.9588 126.584 15.5071 126.902 14.9199C127.234 14.3478 127.401 13.6854 127.401 12.9326C127.401 12.1949 127.234 11.5325 126.902 10.9603C126.584 10.3732 126.13 9.92152 125.556 9.5903C124.981 9.25908 124.331 9.10852 123.621 9.10852C122.91 9.10852 122.275 9.25908 121.7 9.5903C121.126 9.92152 120.672 10.3732 120.355 10.9603C120.022 11.5325 119.856 12.1949 119.856 12.9326C119.856 13.6854 120.022 14.3478 120.355 14.9199C120.672 15.5071 121.126 15.9588 121.7 16.29C122.275 16.6061 122.91 16.7718 123.621 16.7718ZM144.88 12.7068C145.575 12.9176 146.104 13.2789 146.498 13.7908C146.891 14.3027 147.087 14.9199 147.087 15.6576C147.087 16.7115 146.679 17.5245 145.847 18.0816C145.031 18.6537 143.836 18.9397 142.264 18.9397H136.049V6.94053H141.931C143.398 6.94053 144.517 7.22659 145.303 7.78364C146.089 8.34069 146.482 9.10852 146.482 10.057C146.482 10.6442 146.346 11.1711 146.059 11.6228C145.787 12.0744 145.394 12.4358 144.88 12.7068ZM138.816 9.03324V11.8637H141.583C142.264 11.8637 142.793 11.7432 143.141 11.5023C143.504 11.2615 143.685 10.9001 143.685 10.4334C143.685 9.96668 143.504 9.62041 143.141 9.37952C142.793 9.15369 142.264 9.03324 141.583 9.03324H138.816ZM142.067 16.847C142.793 16.847 143.353 16.7266 143.715 16.4857C144.093 16.2448 144.275 15.8684 144.275 15.3716C144.275 14.3779 143.534 13.8811 142.067 13.8811H138.816V16.847H142.067ZM160.862 16.3653H155.267L154.194 18.9397H151.351L156.719 6.94053H159.471L164.854 18.9397H161.92L160.862 16.3653ZM159.985 14.2575L158.065 9.66557L156.159 14.2575H159.985ZM169.828 6.94053H172.626V16.6664H178.659V18.9397H169.828V6.94053ZM86.8932 22.5079H89.6905V34.492H86.8932V22.5079ZM109.241 22.5079V34.492H106.958L100.955 27.2202V34.492H98.2032V22.5079H100.502L106.489 29.7797V22.5079H109.241ZM129.26 22.5079L124.059 34.492H121.307L116.106 22.5079H119.115L122.789 31.0744L126.493 22.5079H129.26ZM145.243 32.2638V34.492H135.928V22.5079H145.031V24.7361H138.695V27.3407H144.29V29.4936H138.695V32.2638H145.243ZM157.082 34.7028C156.129 34.7028 155.207 34.5673 154.33 34.3114C153.438 34.0554 152.727 33.7242 152.183 33.3177L153.135 31.225C153.649 31.6014 154.254 31.9025 154.965 32.1283C155.676 32.3542 156.386 32.4746 157.097 32.4746C157.898 32.4746 158.473 32.3542 158.851 32.1283C159.229 31.8874 159.425 31.5713 159.425 31.1949C159.425 30.9088 159.305 30.668 159.093 30.4722C158.866 30.2916 158.579 30.141 158.231 30.0206C157.883 29.9152 157.399 29.7797 156.81 29.6442C155.887 29.4334 155.146 29.2076 154.557 28.9968C153.967 28.786 153.468 28.4247 153.045 27.958C152.636 27.4762 152.425 26.8288 152.425 26.0309C152.425 25.3383 152.606 24.706 152.984 24.1489C153.362 23.5768 153.937 23.1252 154.708 22.7939C155.464 22.4627 156.401 22.2971 157.49 22.2971C158.261 22.2971 159.017 22.3874 159.743 22.5681C160.484 22.7638 161.119 23.0198 161.678 23.366L160.817 25.4738C159.698 24.8415 158.594 24.5253 157.475 24.5253C156.704 24.5253 156.129 24.6458 155.751 24.9017C155.373 25.1576 155.192 25.4889 155.192 25.8954C155.192 26.3019 155.403 26.618 155.842 26.8138C156.265 27.0095 156.931 27.2052 157.808 27.4009C158.73 27.6267 159.471 27.8375 160.061 28.0483C160.65 28.2741 161.149 28.6204 161.557 29.0871C161.981 29.5538 162.192 30.1862 162.192 30.9841C162.192 31.6616 161.996 32.2939 161.618 32.851C161.225 33.4231 160.65 33.8748 159.894 34.206C159.123 34.5372 158.186 34.7028 157.082 34.7028ZM172.081 24.7662H168.226V22.5079H178.719V24.7662H174.878V34.492H172.081V24.7662ZM95.028 43.8716H97.5833V48.7345C96.918 49.2313 96.162 49.6077 95.3001 49.8637C94.4534 50.1347 93.5764 50.2551 92.7146 50.2551C91.4596 50.2551 90.3407 49.9992 89.3427 49.4572C88.3448 48.9302 87.5585 48.1925 86.9991 47.2591C86.4245 46.3106 86.1372 45.2416 86.1372 44.0673C86.1372 42.8779 86.4245 41.809 86.9991 40.8605C87.5585 39.9271 88.3448 39.1893 89.3578 38.6624C90.3709 38.1204 91.5049 37.8645 92.7599 37.8645C93.8183 37.8645 94.7709 38.0451 95.6328 38.3914C96.4946 38.7527 97.2204 39.2646 97.795 39.9271L96.0108 41.5832C95.1489 40.6798 94.1207 40.2282 92.896 40.2282C92.1249 40.2282 91.4444 40.3787 90.8548 40.7099C90.2499 41.0261 89.7963 41.4778 89.4637 42.0499C89.131 42.637 88.9647 43.2995 88.9647 44.0673C88.9647 44.805 89.131 45.4675 89.4637 46.0396C89.7963 46.6267 90.2499 47.0784 90.8396 47.4096C91.4293 47.7409 92.1097 47.8914 92.8658 47.8914C93.6671 47.8914 94.3929 47.7258 95.028 47.3795V43.8716ZM111.358 50.0594L109.045 46.7171H108.908H106.474V50.0594H103.692V38.0602H108.908C109.967 38.0602 110.889 38.2409 111.675 38.6022C112.462 38.9485 113.067 39.4603 113.49 40.1077C113.913 40.7551 114.125 41.5229 114.125 42.4112C114.125 43.2995 113.913 44.0673 113.49 44.7147C113.051 45.3621 112.447 45.8589 111.66 46.2052L114.352 50.0594H111.358ZM111.313 42.4112C111.313 41.7488 111.101 41.2218 110.662 40.8605C110.224 40.4992 109.589 40.3336 108.742 40.3336H106.474V44.5039H108.742C109.589 44.5039 110.224 44.3233 110.662 43.9619C111.101 43.5855 111.313 43.0737 111.313 42.4112ZM125.692 50.2551C124.452 50.2551 123.318 49.9841 122.32 49.4572C121.322 48.9152 120.536 48.1775 119.961 47.244C119.402 46.2955 119.115 45.2416 119.115 44.0673C119.115 42.8779 119.402 41.8241 119.961 40.8906C120.536 39.9421 121.322 39.2044 122.32 38.6624C123.318 38.1355 124.452 37.8645 125.692 37.8645C126.947 37.8645 128.066 38.1355 129.064 38.6624C130.062 39.2044 130.848 39.9421 131.423 40.8906C131.997 41.8241 132.284 42.8779 132.284 44.0673C132.284 45.2416 131.997 46.2955 131.423 47.244C130.848 48.1775 130.062 48.9152 129.064 49.4572C128.066 49.9841 126.947 50.2551 125.692 50.2551ZM125.692 47.8914C126.403 47.8914 127.053 47.7409 127.627 47.4096C128.202 47.0784 128.656 46.6267 128.973 46.0396C129.306 45.4675 129.472 44.805 129.472 44.0673C129.472 43.3145 129.306 42.6521 128.973 42.08C128.656 41.4928 128.202 41.0412 127.627 40.7099C127.053 40.3938 126.403 40.2282 125.692 40.2282C124.981 40.2282 124.346 40.3938 123.772 40.7099C123.197 41.0412 122.744 41.4928 122.426 42.08C122.093 42.6521 121.927 43.3145 121.927 44.0673C121.927 44.805 122.093 45.4675 122.426 46.0396C122.744 46.6267 123.197 47.0784 123.772 47.4096C124.346 47.7409 124.981 47.8914 125.692 47.8914ZM143.262 50.2551C141.553 50.2551 140.208 49.7884 139.255 48.8399C138.287 47.8914 137.819 46.5364 137.819 44.7749V38.0602H140.601V44.6695C140.601 46.8225 141.493 47.8914 143.292 47.8914C144.154 47.8914 144.819 47.6355 145.273 47.1236C145.742 46.5966 145.968 45.7836 145.968 44.6695V38.0602H148.72V44.7749C148.72 46.5364 148.236 47.8914 147.284 48.8399C146.331 49.7884 144.986 50.2551 143.262 50.2551ZM160.212 38.0602C161.285 38.0602 162.208 38.2409 162.994 38.6022C163.78 38.9485 164.385 39.4603 164.808 40.1077C165.232 40.7551 165.443 41.5229 165.443 42.4112C165.443 43.2995 165.232 44.0673 164.808 44.7147C164.385 45.3771 163.78 45.874 162.994 46.2202C162.208 46.5816 161.285 46.7472 160.212 46.7472H157.792V50.0594H155.01V38.0602H160.212ZM160.061 44.4889C160.907 44.4889 161.542 44.3082 161.966 43.9469C162.404 43.5855 162.631 43.0737 162.631 42.4112C162.631 41.7488 162.404 41.2218 161.966 40.8605C161.542 40.4992 160.907 40.3336 160.061 40.3336H157.792V44.4889H160.061Z" fill="#133050"/>
</g>
<defs>
<clipPath id="clip0_52_35">
<rect width="179" height="57" fill="white"/>
</clipPath>
</defs>
</svg>
