<svg width="50" height="42" viewBox="0 0 50 42" fill="none" xmlns="http://www.w3.org/2000/svg">
<path fill-rule="evenodd" clip-rule="evenodd" d="M0.0675676 26.4027H8.27703L35.3829 7.85424L49.9437 26.325C49.9775 25.7592 50 25.1935 50 24.6277C50 11.0825 38.75 0 25 0C11.25 0 0 11.0825 0 24.6277C0 25.2267 0.0225225 25.8147 0.0675676 26.4027Z" fill="white"/>
<path fill-rule="evenodd" clip-rule="evenodd" d="M0.28125 28.3114H8.27674L35.2812 11.6045L49.7745 27.9897C49.7182 28.378 49.6506 28.7773 49.5718 29.1656L35.2812 14.2226L8.07404 29.6093H0.517736C0.427646 29.1878 0.348818 28.7551 0.28125 28.3114Z" fill="white"/>
<path fill-rule="evenodd" clip-rule="evenodd" d="M0.967773 31.4168H8.07363L35.2808 18.0713L49.2335 30.6625C49.1434 31.0508 49.0308 31.4279 48.9182 31.794L35.2808 20.6672L8.07363 32.7813H1.41822C1.26057 32.3376 1.10291 31.8828 0.967773 31.4168Z" fill="white"/>
<path fill-rule="evenodd" clip-rule="evenodd" d="M2.80263 35.9213H8.0729L35.2801 27.0686L47.8702 34.5457C48.0504 34.1574 48.208 33.7691 48.3657 33.3698L35.2801 24.4395L8.0729 34.6122L2.12695 34.5346C2.34092 35.0116 2.55488 35.4665 2.80263 35.9213Z" fill="white"/>
<path fill-rule="evenodd" clip-rule="evenodd" d="M4.70617 38.961H8.07329L35.2805 33.503L46.2715 37.5299C46.5417 37.0973 46.8008 36.6536 47.0485 36.2098L35.2805 30.896L8.07329 37.5854L3.77148 37.5965C4.06428 38.0624 4.37959 38.5173 4.70617 38.961Z" fill="white"/>
<path fill-rule="evenodd" clip-rule="evenodd" d="M6.15967 40.7799H8.07408L35.2813 37.3853L44.8871 39.5152C44.4705 40.0588 44.02 40.5802 43.5583 41.0905L35.2813 39.9811L8.07408 42.0002H7.31958C6.92543 41.6008 6.53129 41.2014 6.15967 40.7799Z" fill="white"/>
</svg>
