<svg width="72" height="93" viewBox="0 0 72 93" fill="none" xmlns="http://www.w3.org/2000/svg">
<path fill-rule="evenodd" clip-rule="evenodd" d="M0.0736171 28.2088H8.71405L37.2429 8.39153L52.5681 28.1259C52.6037 27.5214 52.6274 26.9169 52.6274 26.3124C52.6274 11.8406 40.7868 0 26.3149 0C11.8431 0 0.00250244 11.8406 0.00250244 26.3124C0.00250244 26.9525 0.0262073 27.5806 0.0736171 28.2088Z" fill="#133050"/>
<path fill-rule="evenodd" clip-rule="evenodd" d="M0.298492 30.2474H8.71373L37.1359 12.3976L52.39 29.9037C52.3307 30.3185 52.2596 30.7452 52.1766 31.1601L37.1359 15.1948L8.50039 31.6342H0.547394C0.452574 31.1838 0.369607 30.7215 0.298492 30.2474Z" fill="#133050"/>
<path fill-rule="evenodd" clip-rule="evenodd" d="M1.02151 33.5661H8.50041L37.1359 19.3076L51.8211 32.7601C51.7263 33.175 51.6078 33.578 51.4892 33.9691L37.1359 22.0811L8.50041 35.024H1.49561C1.32968 34.5499 1.16374 34.0639 1.02151 33.5661Z" fill="#133050"/>
<path fill-rule="evenodd" clip-rule="evenodd" d="M2.95352 38.3782H8.50046L37.136 28.92L50.387 36.9085C50.5766 36.4937 50.7426 36.0789 50.9085 35.6522L37.136 26.111L8.50046 36.9797L2.24237 36.8967C2.46757 37.4063 2.69276 37.8923 2.95352 38.3782Z" fill="#133050"/>
<path fill-rule="evenodd" clip-rule="evenodd" d="M4.95656 41.6258H8.50044L37.136 35.7944L48.7039 40.0969C48.9884 39.6346 49.261 39.1605 49.5218 38.6864L37.136 33.0091L8.50044 40.1561L3.97281 40.168C4.28097 40.6658 4.61284 41.1517 4.95656 41.6258Z" fill="#133050"/>
<path fill-rule="evenodd" clip-rule="evenodd" d="M6.4855 43.5696H8.50042L37.1359 39.9427L47.2461 42.2184C46.8075 42.7992 46.3334 43.3563 45.8475 43.9015L37.1359 42.7162L8.50042 44.8734H7.70631C7.29147 44.4467 6.87663 44.02 6.4855 43.5696Z" fill="#133050"/>
<path d="M6.91426 63.4405H8.90152V67.2405C8.38413 67.6288 7.79618 67.9229 7.12592 68.1229C6.46742 68.3347 5.7854 68.4288 5.11514 68.4288C4.13915 68.4288 3.26899 68.2288 2.4929 67.8053C1.71681 67.3935 1.10534 66.817 0.67026 66.0876C0.22342 65.3464 0 64.5111 0 63.5817C0 62.6641 0.22342 61.8288 0.67026 61.0876C1.10534 60.3582 1.71681 59.7817 2.50465 59.37C3.2925 58.9464 4.17442 58.7464 5.15042 58.7464C5.97354 58.7464 6.71436 58.8758 7.38462 59.1582C8.05488 59.4288 8.6193 59.8405 9.06614 60.3582L7.67859 61.6523C7.00833 60.9464 6.20872 60.5935 5.25625 60.5935C4.65654 60.5935 4.12739 60.7111 3.66879 60.97C3.19843 61.217 2.84566 61.57 2.58697 62.017C2.32827 62.4758 2.19892 62.9935 2.19892 63.5817C2.19892 64.17 2.32827 64.6876 2.58697 65.1347C2.84566 65.5935 3.19843 65.9464 3.65703 66.2053C4.11563 66.4523 4.64478 66.5817 5.23273 66.5817C5.85595 66.5817 6.42038 66.4523 6.91426 66.1817V63.4405ZM13.805 58.8994H15.9686V66.4994H20.6605V68.2758H13.805V58.8994ZM29.1504 68.4288C28.1862 68.4288 27.3043 68.217 26.5282 67.8053C25.7521 67.3817 25.1406 66.8053 24.6938 66.0641C24.2587 65.3347 24.0353 64.5111 24.0353 63.5817C24.0353 62.6641 24.2587 61.8405 24.6938 61.0994C25.1406 60.37 25.7521 59.7935 26.5282 59.37C27.3043 58.9582 28.1862 58.7464 29.1504 58.7464C30.1264 58.7464 30.9966 58.9582 31.7727 59.37C32.5488 59.7935 33.1602 60.37 33.6071 61.0994C34.0539 61.8405 34.2773 62.6641 34.2773 63.5817C34.2773 64.5111 34.0539 65.3347 33.6071 66.0641C33.1602 66.8053 32.5488 67.3817 31.7727 67.8053C30.9966 68.217 30.1264 68.4288 29.1504 68.4288ZM29.1504 66.5817C29.7031 66.5817 30.2087 66.4523 30.6556 66.2053C31.1024 65.9464 31.4552 65.5935 31.7021 65.1347C31.9608 64.6876 32.0902 64.17 32.0902 63.5817C32.0902 63.0053 31.9608 62.4876 31.7021 62.0405C31.4552 61.5817 31.1024 61.2288 30.6556 60.97C30.2087 60.7111 29.7031 60.5935 29.1504 60.5935C28.5977 60.5935 28.1039 60.7111 27.657 60.97C27.2102 61.2288 26.8574 61.5817 26.6105 62.0405C26.3518 62.4876 26.2224 63.0053 26.2224 63.5817C26.2224 64.17 26.3518 64.6876 26.6105 65.1347C26.8574 65.5935 27.2102 65.9464 27.657 66.2053C28.1039 66.4523 28.5977 66.5817 29.1504 66.5817ZM45.6835 63.4053C46.2244 63.57 46.636 63.8523 46.9417 64.2523C47.2474 64.6523 47.4003 65.1347 47.4003 65.7111C47.4003 66.5347 47.0828 67.17 46.4361 67.6053C45.8011 68.0523 44.8721 68.2758 43.6492 68.2758H38.8163V58.8994H43.3905C44.5311 58.8994 45.4013 59.1229 46.0127 59.5582C46.6242 59.9935 46.9299 60.5935 46.9299 61.3347C46.9299 61.7935 46.8241 62.2053 46.6007 62.5582C46.389 62.9111 46.0833 63.1935 45.6835 63.4053ZM40.9682 60.5347V62.7464H43.12C43.6492 62.7464 44.0608 62.6523 44.3312 62.4641C44.6134 62.2758 44.7545 61.9935 44.7545 61.6288C44.7545 61.2641 44.6134 60.9935 44.3312 60.8053C44.0608 60.6288 43.6492 60.5347 43.12 60.5347H40.9682ZM43.4963 66.6405C44.0608 66.6405 44.4958 66.5464 44.7781 66.3582C45.072 66.17 45.2131 65.8758 45.2131 65.4876C45.2131 64.7111 44.6369 64.3229 43.4963 64.3229H40.9682V66.6405H43.4963ZM58.1127 66.2641H53.7619L52.927 68.2758H50.7163L54.8907 58.8994H57.0309L61.2171 68.2758H58.9358L58.1127 66.2641ZM57.4307 64.617L55.9373 61.0288L54.4557 64.617H57.4307ZM65.0857 58.8994H67.2611V66.4994H71.953V68.2758H65.0857V58.8994ZM0.587947 71.0641H2.76335V80.4288H0.587947V71.0641ZM17.9677 71.0641V80.4288H16.1921L11.5238 74.7464V80.4288H9.38364V71.0641H11.171L15.8275 76.7464V71.0641H17.9677ZM33.5365 71.0641L29.4914 80.4288H27.3513L23.3062 71.0641H25.6463L28.5037 77.7582L31.3846 71.0641H33.5365ZM45.9657 78.6876V80.4288H38.7222V71.0641H45.8011V72.8053H40.8741V74.8405H45.2249V76.5229H40.8741V78.6876H45.9657ZM55.173 80.5935C54.4321 80.5935 53.7148 80.4876 53.0328 80.2876C52.3391 80.0876 51.7864 79.8288 51.3631 79.5111L52.1039 77.8758C52.5037 78.17 52.974 78.4053 53.5267 78.5817C54.0794 78.7582 54.632 78.8523 55.1847 78.8523C55.8079 78.8523 56.2548 78.7582 56.5488 78.5817C56.8427 78.3935 56.9956 78.1464 56.9956 77.8523C56.9956 77.6288 56.9015 77.4405 56.7369 77.2876C56.5605 77.1464 56.3371 77.0288 56.0666 76.9347C55.7962 76.8523 55.4199 76.7464 54.9613 76.6405C54.244 76.4758 53.6678 76.2994 53.2092 76.1347C52.7506 75.97 52.3626 75.6876 52.0333 75.3229C51.7158 74.9464 51.5512 74.4405 51.5512 73.817C51.5512 73.2758 51.6923 72.7817 51.9863 72.3464C52.2803 71.8994 52.7271 71.5464 53.3268 71.2876C53.9147 71.0288 54.6438 70.8994 55.4904 70.8994C56.0902 70.8994 56.6781 70.97 57.2425 71.1111C57.8187 71.2641 58.3126 71.4641 58.7477 71.7347L58.0774 73.3817C57.2073 72.8876 56.3489 72.6405 55.4787 72.6405C54.879 72.6405 54.4321 72.7347 54.1382 72.9347C53.8442 73.1347 53.7031 73.3935 53.7031 73.7111C53.7031 74.0288 53.8677 74.2758 54.2087 74.4288C54.538 74.5817 55.0554 74.7347 55.7374 74.8876C56.4547 75.0641 57.0309 75.2288 57.4895 75.3935C57.9481 75.57 58.3361 75.8405 58.6536 76.2053C58.9829 76.57 59.1475 77.0641 59.1475 77.6876C59.1475 78.217 58.9946 78.7111 58.7006 79.1464C58.3949 79.5935 57.9481 79.9464 57.3601 80.2053C56.7604 80.4641 56.0314 80.5935 55.173 80.5935ZM66.8378 72.8288H63.8393V71.0641H72V72.8288H69.0132V80.4288H66.8378V72.8288ZM6.91426 87.7582H8.90152V91.5582C8.38413 91.9464 7.79618 92.2405 7.12592 92.4405C6.46742 92.6523 5.7854 92.7464 5.11514 92.7464C4.13915 92.7464 3.26899 92.5464 2.4929 92.1229C1.71681 91.7111 1.10534 91.1347 0.67026 90.4053C0.22342 89.6641 0 88.8288 0 87.9111C0 86.9817 0.22342 86.1464 0.67026 85.4053C1.10534 84.6758 1.71681 84.0994 2.50465 83.6876C3.2925 83.2641 4.17442 83.0641 5.15042 83.0641C5.97354 83.0641 6.71436 83.2053 7.38462 83.4758C8.05488 83.7582 8.6193 84.1582 9.06614 84.6758L7.67859 85.97C7.00833 85.2641 6.20872 84.9111 5.25625 84.9111C4.65654 84.9111 4.12739 85.0288 3.66879 85.2876C3.19843 85.5347 2.84566 85.8876 2.58697 86.3347C2.32827 86.7935 2.19892 87.3111 2.19892 87.9111C2.19892 88.4876 2.32827 89.0053 2.58697 89.4523C2.84566 89.9111 3.19843 90.2641 3.65703 90.5229C4.11563 90.7817 4.64478 90.8994 5.23273 90.8994C5.85595 90.8994 6.42038 90.77 6.91426 90.4994V87.7582ZM19.6139 92.5935L17.8148 89.9817H17.709H15.8158V92.5935H13.6521V83.217H17.709C18.5321 83.217 19.2494 83.3582 19.8609 83.6405C20.4723 83.9111 20.9427 84.3111 21.2719 84.817C21.6012 85.3229 21.7658 85.9229 21.7658 86.617C21.7658 87.3111 21.6012 87.9111 21.2719 88.417C20.9309 88.9229 20.4606 89.3111 19.8491 89.5817L21.9422 92.5935H19.6139ZM19.5786 86.617C19.5786 86.0994 19.414 85.6876 19.073 85.4053C18.732 85.1229 18.2381 84.9935 17.5796 84.9935H15.8158V88.2523H17.5796C18.2381 88.2523 18.732 88.1111 19.073 87.8288C19.414 87.5347 19.5786 87.1347 19.5786 86.617ZM30.7614 92.7464C29.7972 92.7464 28.9152 92.5347 28.1391 92.1229C27.3631 91.6994 26.7516 91.1229 26.3048 90.3935C25.8697 89.6523 25.6463 88.8288 25.6463 87.9111C25.6463 86.9817 25.8697 86.1582 26.3048 85.4288C26.7516 84.6876 27.3631 84.1111 28.1391 83.6876C28.9152 83.2758 29.7972 83.0641 30.7614 83.0641C31.7374 83.0641 32.6075 83.2758 33.3836 83.6876C34.1597 84.1111 34.7712 84.6876 35.218 85.4288C35.6649 86.1582 35.8883 86.9817 35.8883 87.9111C35.8883 88.8288 35.6649 89.6523 35.218 90.3935C34.7712 91.1229 34.1597 91.6994 33.3836 92.1229C32.6075 92.5347 31.7374 92.7464 30.7614 92.7464ZM30.7614 90.8994C31.3141 90.8994 31.8197 90.7817 32.2665 90.5229C32.7134 90.2641 33.0661 89.9111 33.3131 89.4523C33.5718 89.0053 33.7011 88.4876 33.7011 87.9111C33.7011 87.3229 33.5718 86.8053 33.3131 86.3582C33.0661 85.8994 32.7134 85.5464 32.2665 85.2876C31.8197 85.0405 31.3141 84.9111 30.7614 84.9111C30.2087 84.9111 29.7148 85.0405 29.268 85.2876C28.8212 85.5464 28.4684 85.8994 28.2215 86.3582C27.9628 86.8053 27.8334 87.3229 27.8334 87.9111C27.8334 88.4876 27.9628 89.0053 28.2215 89.4523C28.4684 89.9111 28.8212 90.2641 29.268 90.5229C29.7148 90.7817 30.2087 90.8994 30.7614 90.8994ZM44.4253 92.7464C43.0965 92.7464 42.05 92.3817 41.3092 91.6405C40.5566 90.8994 40.1921 89.8405 40.1921 88.4641V83.217H42.3557V88.3817C42.3557 90.0641 43.0495 90.8994 44.4488 90.8994C45.1191 90.8994 45.6365 90.6994 45.9892 90.2994C46.3537 89.8876 46.5301 89.2523 46.5301 88.3817V83.217H48.6703V88.4641C48.6703 89.8405 48.294 90.8994 47.5532 91.6405C46.8123 92.3817 45.7658 92.7464 44.4253 92.7464ZM57.6071 83.217C58.4419 83.217 59.1592 83.3582 59.7707 83.6405C60.3822 83.9111 60.8525 84.3111 61.1818 84.817C61.511 85.3229 61.6757 85.9229 61.6757 86.617C61.6757 87.3111 61.511 87.9111 61.1818 88.417C60.8525 88.9347 60.3822 89.3229 59.7707 89.5935C59.1592 89.8758 58.4419 90.0053 57.6071 90.0053H55.7256V92.5935H53.562V83.217H57.6071ZM57.4895 88.2405C58.148 88.2405 58.6418 88.0994 58.9711 87.817C59.3121 87.5347 59.4885 87.1347 59.4885 86.617C59.4885 86.0994 59.3121 85.6876 58.9711 85.4053C58.6418 85.1229 58.148 84.9935 57.4895 84.9935H55.7256V88.2405H57.4895Z" fill="#133050"/>
</svg>
