<svg width="23" height="24" viewBox="0 0 23 24" fill="none" xmlns="http://www.w3.org/2000/svg">
<path d="M1.84873 10.0365L14.9534 3.20976C16.247 2.49862 20.634 0.223026 20.634 0.223026C20.634 0.223026 22.6588 -0.772549 22.49 1.64527C22.4338 2.64085 21.9838 6.12537 21.5338 9.89433L20.1278 21.059C20.1278 21.059 20.0153 22.6945 19.0592 22.979C18.103 23.2635 16.5282 21.9835 16.247 21.699C16.0221 21.4856 12.0288 18.2856 10.5664 16.7212C10.1727 16.2944 9.7228 15.4411 10.6227 14.4456C12.6474 12.0988 15.0659 9.18321 16.5282 7.33428C17.2031 6.48092 17.878 4.48977 15.0659 6.9076L7.13561 13.6633C7.13561 13.6633 6.23571 14.3744 4.54841 13.7344C2.86111 13.0943 0.892601 12.241 0.892601 12.241C0.892601 12.241 -0.457237 11.1744 1.84873 10.0365Z" fill="#133050"/>
</svg>
