<svg width="154" height="88" viewBox="0 0 154 88" fill="none" xmlns="http://www.w3.org/2000/svg">
<path d="M0 43.9249C0 51.9385 1.95062 59.3358 5.85185 66.1165C9.75309 72.8973 15.0916 78.2398 21.8675 82.1439C28.6433 86.048 36.0351 88 44.0429 88C48.8681 88 53.796 87.0753 58.8265 85.226C54.104 79.3699 50.4594 72.846 47.8928 65.6542C46.1475 65.8597 44.8642 65.9624 44.0429 65.9624C37.9857 65.9624 32.8012 63.8049 28.4893 59.4899C24.1774 55.1748 22.0214 49.9865 22.0214 43.9249C22.0214 37.8633 24.1774 32.6749 28.4893 28.3599C32.8012 24.0448 37.9857 21.8873 44.0429 21.8873C50.1001 21.8873 55.2846 24.0448 59.5965 28.3599C63.9084 32.6749 66.0643 37.8633 66.0643 43.9249C66.0643 51.9385 68.015 59.3358 71.9162 66.1165C75.8174 72.8973 81.156 78.2398 87.9318 82.1439C94.7076 86.048 102.048 88 109.953 88C117.858 88 125.25 86.048 132.129 82.1439C139.007 78.2398 144.346 72.8973 148.144 66.1165C151.943 59.3358 153.893 51.9385 153.996 43.9249C154.099 35.9112 152.148 28.5654 148.144 21.8873C144.14 15.2093 138.802 9.86682 132.129 5.85999C125.456 1.85316 118.064 -0.0988865 109.953 0.00385272C105.128 0.00385272 100.2 0.877135 95.1696 2.6237C99.8922 8.47984 103.537 15.0552 106.103 22.3496C107.849 22.0414 109.132 21.8873 109.953 21.8873C116.01 21.8873 121.195 24.0448 125.507 28.3599C129.819 32.6749 131.975 37.8633 131.975 43.9249C131.975 50.0892 129.819 55.3289 125.507 59.644C121.195 63.959 116.01 66.0652 109.953 65.9624C103.896 65.9624 98.7115 63.8563 94.3996 59.644C90.0877 55.4317 87.9318 50.192 87.9318 43.9249C87.9318 36.014 85.9812 28.6681 82.0799 21.8873C78.1787 15.1065 72.8402 9.76408 66.0643 5.85999C59.2885 1.9559 51.948 0.00385272 44.0429 0.00385272C36.1378 0.00385272 28.7459 1.9559 21.8675 5.85999C14.989 9.76408 9.65042 15.1065 5.85185 21.8873C2.05328 28.6681 0.102664 36.014 0 43.9249Z" fill="#133050"/>
</svg>
