<?xml version="1.0" encoding="utf-8"?><svg viewBox="0 0 179 93" xmlns="http://www.w3.org/2000/svg" xmlns:xlink="http://www.w3.org/1999/xlink"><style>:root>svg{display:none}:root>svg:target{display:block}</style><svg viewBox="0 0 8 13" id="arrow" xmlns="http://www.w3.org/2000/svg"><path d="M7 1L1 6.5 7 12"/></svg><svg viewBox="0 0 16 12" id="check" xmlns="http://www.w3.org/2000/svg"><path d="M1 2.714L6.294 10 15 1"/></svg><svg viewBox="0 0 25 25" id="lang" xmlns="http://www.w3.org/2000/svg"><path d="M12.58 0C19.517 0 25.162 5.645 25 12.58c0 6.776-5.323 12.26-12.097 12.42h-.322C5.806 25 .16 19.677 0 12.903v-.322C0 5.645 5.645 0 12.58 0zm3.065 13.71h-6.29c.322 4.677 1.935 8.548 3.064 8.87h.162c1.129 0 2.742-3.87 3.064-8.386v-.484zm6.936 0h-4.517c-.16 3.226-.806 6.129-1.935 8.226 3.387-1.29 5.806-4.194 6.29-7.742l.162-.484zm-15.646 0H2.42c.484 3.71 2.904 6.774 6.29 8.226-.967-1.936-1.612-4.678-1.935-7.581l.161-.645zM8.871 3.065l-.161.16C5.323 4.517 2.903 7.743 2.42 11.29h4.354c.161-2.903.807-5.645 1.774-7.742l.323-.483zm3.548-.646c-1.129 0-2.742 4.033-3.064 8.871h6.29c-.322-4.677-1.935-8.548-3.226-8.87zm3.71.646c1.13 2.096 1.774 5 1.935 8.225h4.517c-.484-3.71-2.904-6.774-6.452-8.225z"/></svg><svg viewBox="0 0 32 54" id="lk" xmlns="http://www.w3.org/2000/svg"><circle cx="16.148" cy="10.593" r="10.556"/><path d="M1.053 37.588a14.964 14.964 0 014.519-10.312 15.244 15.244 0 0110.475-4.321 15.265 15.265 0 0110.575 4.084 14.987 14.987 0 014.764 10.207l-15.16.746-15.173-.404z"/></svg><svg viewBox="0 0 179 57" id="logo" xmlns="http://www.w3.org/2000/svg"><g clip-path="url(#ea)"><path fill-rule="evenodd" clip-rule="evenodd" d="M.094 35.832h11.023L47.51 10.659l19.55 25.068c.046-.768.076-1.536.076-2.304C67.137 15.04 52.032 0 33.57 0S.003 15.04.003 33.423c0 .813.03 1.611.09 2.409z"/><path fill-rule="evenodd" clip-rule="evenodd" d="M.38 38.422h10.736l36.259-22.674 19.46 22.237a29.272 29.272 0 01-.273 1.596L47.375 19.3 10.844 40.183H.698a30.428 30.428 0 01-.317-1.761z"/><path fill-rule="evenodd" clip-rule="evenodd" d="M1.303 42.637h9.541l36.53-18.112L66.11 41.613c-.121.527-.272 1.04-.423 1.536l-18.311-15.1-36.531 16.44H1.908a33.215 33.215 0 01-.605-1.852z"/><path fill-rule="evenodd" clip-rule="evenodd" d="M3.768 48.75h7.076l36.53-12.015L64.28 46.883a29.59 29.59 0 00.666-1.596l-17.57-12.12-36.531 13.806-7.984-.105c.288.647.575 1.264.908 1.882z"/><path fill-rule="evenodd" clip-rule="evenodd" d="M6.323 52.875h4.521l36.53-7.407 14.758 5.465c.363-.588.71-1.19 1.043-1.792l-15.8-7.212-36.531 9.079-5.776.015c.393.632.816 1.25 1.255 1.852z"/><path fill-rule="evenodd" clip-rule="evenodd" d="M8.274 55.344h2.57l36.53-4.607 12.898 2.89a34.353 34.353 0 01-1.784 2.139L47.375 54.26 10.844 57H9.831a39.934 39.934 0 01-1.557-1.656z"/><path d="M95.028 12.752h2.555v4.863a7.19 7.19 0 01-2.283 1.129 8.486 8.486 0 01-2.585.392c-1.255 0-2.374-.256-3.372-.799a5.88 5.88 0 01-2.344-2.198c-.575-.948-.862-2.017-.862-3.206 0-1.175.287-2.244.862-3.192a5.825 5.825 0 012.359-2.198c1.013-.542 2.147-.798 3.402-.798 1.058 0 2.01.165 2.873.527a5.607 5.607 0 012.162 1.535l-1.784 1.656c-.862-.903-1.89-1.354-3.115-1.354-.771 0-1.452.15-2.041.481a3.401 3.401 0 00-1.391 1.34c-.333.587-.5 1.25-.5 2.003 0 .752.167 1.415.5 1.987a3.532 3.532 0 001.376 1.37c.59.316 1.27.482 2.026.482.801 0 1.527-.166 2.162-.512v-3.508zm8.86-5.811h2.783v9.725h6.033v2.274h-8.816v-12zm19.733 12.195c-1.24 0-2.374-.271-3.372-.799a6.093 6.093 0 01-2.359-2.228c-.56-.933-.847-1.987-.847-3.176 0-1.175.287-2.229.847-3.177a6.167 6.167 0 012.359-2.213c.998-.527 2.132-.798 3.372-.798 1.255 0 2.373.27 3.371.798a6.167 6.167 0 012.359 2.213c.575.948.862 2.002.862 3.177 0 1.189-.287 2.243-.862 3.176a6.093 6.093 0 01-2.359 2.228c-.998.527-2.116.799-3.371.799zm0-2.364c.71 0 1.36-.166 1.935-.482a3.464 3.464 0 001.346-1.37c.332-.572.499-1.235.499-1.987 0-.738-.167-1.4-.499-1.973a3.465 3.465 0 00-1.346-1.37c-.575-.33-1.225-.481-1.935-.481-.711 0-1.346.15-1.921.481a3.456 3.456 0 00-1.345 1.37c-.333.572-.499 1.235-.499 1.973 0 .752.166 1.415.499 1.987a3.455 3.455 0 001.345 1.37c.575.316 1.21.482 1.921.482zm21.259-4.065c.695.21 1.224.572 1.618 1.084.393.512.589 1.129.589 1.867 0 1.054-.408 1.867-1.24 2.424-.816.572-2.011.858-3.583.858h-6.215v-12h5.882c1.467 0 2.586.287 3.372.844.786.557 1.179 1.325 1.179 2.273 0 .587-.136 1.114-.423 1.566a2.94 2.94 0 01-1.179 1.084zm-6.064-3.674v2.83h2.767c.681 0 1.21-.12 1.558-.36.363-.242.544-.603.544-1.07 0-.466-.181-.813-.544-1.053-.348-.226-.877-.347-1.558-.347h-2.767zm3.251 7.814c.726 0 1.286-.12 1.648-.361.378-.241.56-.618.56-1.114 0-.994-.741-1.49-2.208-1.49h-3.251v2.965h3.251zm18.795-.482h-5.595l-1.073 2.575h-2.843l5.368-12h2.752l5.383 12h-2.934l-1.058-2.575zm-.877-2.107l-1.92-4.592-1.906 4.591h3.826zm9.843-7.317h2.798v9.725h6.033v2.274h-8.831v-12zM86.893 22.508h2.797v11.984h-2.797V22.508zm22.348 0v11.984h-2.283l-6.003-7.272v7.272h-2.752V22.508h2.299l5.987 7.272v-7.272h2.752zm20.019 0l-5.201 11.984h-2.752l-5.201-11.984h3.009l3.674 8.566 3.704-8.566h2.767zm15.983 9.756v2.228h-9.315V22.508h9.103v2.228h-6.336v2.605h5.595v2.153h-5.595v2.77h6.548zm11.839 2.439a9.802 9.802 0 01-2.752-.392c-.892-.256-1.603-.587-2.147-.993l.952-2.093a6.278 6.278 0 001.83.903 7.015 7.015 0 002.132.347c.801 0 1.376-.12 1.754-.347.378-.24.574-.557.574-.933a.958.958 0 00-.332-.723 2.893 2.893 0 00-.862-.451 21.76 21.76 0 00-1.421-.377 19.666 19.666 0 01-2.253-.647c-.59-.211-1.089-.572-1.512-1.039-.409-.482-.62-1.13-.62-1.927 0-.693.181-1.325.559-1.882.378-.572.953-1.024 1.724-1.355.756-.331 1.693-.497 2.782-.497.771 0 1.527.09 2.253.271.741.196 1.376.452 1.935.798l-.861 2.108c-1.119-.633-2.223-.949-3.342-.949-.771 0-1.346.12-1.724.377-.378.256-.559.587-.559.993 0 .407.211.723.65.919.423.195 1.089.391 1.966.587.922.226 1.663.436 2.253.647a3.728 3.728 0 011.496 1.04c.424.466.635 1.098.635 1.896a3.28 3.28 0 01-.574 1.867c-.393.572-.968 1.024-1.724 1.355-.771.331-1.708.497-2.812.497zm14.999-9.937h-3.855v-2.258h10.493v2.258h-3.841v9.726h-2.797v-9.726zM95.028 43.872h2.555v4.862a7.191 7.191 0 01-2.283 1.13 8.486 8.486 0 01-2.585.391c-1.255 0-2.374-.256-3.372-.798a5.882 5.882 0 01-2.344-2.198c-.575-.948-.862-2.017-.862-3.192 0-1.19.287-2.258.862-3.206a5.825 5.825 0 012.359-2.199c1.013-.542 2.147-.797 3.402-.797 1.058 0 2.01.18 2.873.526.862.362 1.587.874 2.162 1.536l-1.784 1.656c-.862-.903-1.89-1.355-3.115-1.355-.771 0-1.452.15-2.041.482a3.402 3.402 0 00-1.391 1.34c-.333.587-.5 1.25-.5 2.017 0 .738.167 1.4.5 1.973a3.532 3.532 0 001.376 1.37c.59.33 1.27.481 2.026.481.801 0 1.527-.165 2.162-.511v-3.508zm16.33 6.187l-2.313-3.342h-2.571v3.342h-2.782V38.06h5.216c1.059 0 1.981.18 2.767.542.787.347 1.392.858 1.815 1.506.423.647.635 1.415.635 2.303 0 .889-.212 1.656-.635 2.304-.439.647-1.043 1.144-1.83 1.49l2.692 3.854h-2.994zm-.045-7.648c0-.662-.212-1.19-.651-1.55-.438-.362-1.073-.527-1.92-.527h-2.268v4.17h2.268c.847 0 1.482-.18 1.92-.542.439-.377.651-.888.651-1.55zm14.379 7.844c-1.24 0-2.374-.27-3.372-.798a6.174 6.174 0 01-2.359-2.213c-.559-.949-.846-2.002-.846-3.177 0-1.19.287-2.243.846-3.176a6.1 6.1 0 012.359-2.229c.998-.526 2.132-.797 3.372-.797 1.255 0 2.374.27 3.372.797a6.1 6.1 0 012.359 2.229c.574.933.861 1.987.861 3.176 0 1.175-.287 2.228-.861 3.177a6.174 6.174 0 01-2.359 2.213c-.998.527-2.117.798-3.372.798zm0-2.364c.711 0 1.361-.15 1.935-.481a3.452 3.452 0 001.346-1.37c.333-.572.499-1.235.499-1.973 0-.752-.166-1.415-.499-1.987a3.452 3.452 0 00-1.346-1.37 3.962 3.962 0 00-1.935-.482c-.711 0-1.346.166-1.92.482a3.459 3.459 0 00-1.346 1.37c-.333.572-.499 1.235-.499 1.987 0 .738.166 1.4.499 1.973a3.458 3.458 0 001.346 1.37c.574.33 1.209.481 1.92.481zm17.57 2.364c-1.709 0-3.054-.467-4.007-1.415-.968-.949-1.436-2.304-1.436-4.065V38.06h2.782v6.61c0 2.152.892 3.221 2.691 3.221.862 0 1.527-.255 1.981-.767.469-.527.695-1.34.695-2.455V38.06h2.752v6.715c0 1.761-.484 3.116-1.436 4.065-.953.948-2.298 1.415-4.022 1.415zm16.95-12.195c1.073 0 1.996.18 2.782.542.786.347 1.391.858 1.814 1.506.424.647.635 1.415.635 2.303 0 .889-.211 1.656-.635 2.304-.423.662-1.028 1.159-1.814 1.505-.786.362-1.709.527-2.782.527h-2.42v3.312h-2.782V38.06h5.202zm-.151 6.429c.846 0 1.481-.18 1.905-.542.438-.361.665-.873.665-1.536 0-.662-.227-1.19-.665-1.55-.424-.362-1.059-.527-1.905-.527h-2.269v4.155h2.269z"/></g><defs><clipPath id="ea"><path d="M0 0h179v57H0z"/></clipPath></defs></svg><svg viewBox="0 0 50 42" id="logoNotext" xmlns="http://www.w3.org/2000/svg"><path fill-rule="evenodd" clip-rule="evenodd" d="M.068 26.402h8.209L35.383 7.855l14.56 18.47c.035-.565.057-1.13.057-1.696C50 11.082 38.75 0 25 0S0 11.082 0 24.628c0 .599.023 1.187.068 1.774z"/><path fill-rule="evenodd" clip-rule="evenodd" d="M.281 28.31h7.996L35.28 11.605 49.774 27.99c-.057.388-.124.788-.203 1.176l-14.29-14.943L8.073 29.609H.518A22.2 22.2 0 01.28 28.31z"/><path fill-rule="evenodd" clip-rule="evenodd" d="M.968 31.417h7.106L35.28 18.07l13.953 12.591c-.09.389-.203.766-.316 1.132L35.281 20.667 8.074 32.781H1.418a24.319 24.319 0 01-.45-1.364z"/><path fill-rule="evenodd" clip-rule="evenodd" d="M2.804 35.92h5.27l27.207-8.852 12.59 7.477c.18-.388.338-.776.496-1.176L35.28 24.44 8.074 34.612l-5.946-.078c.214.477.428.932.676 1.387z"/><path fill-rule="evenodd" clip-rule="evenodd" d="M4.707 38.96h3.367l27.207-5.458 10.991 4.027c.27-.432.53-.876.777-1.32l-11.768-5.314-27.207 6.69-4.302.01c.293.467.608.922.935 1.365z"/><path fill-rule="evenodd" clip-rule="evenodd" d="M6.16 40.78h1.914l27.207-3.395 9.606 2.13a25.317 25.317 0 01-1.329 1.575l-8.277-1.109L8.074 42H7.32c-.395-.4-.789-.799-1.16-1.22z"/></svg><svg viewBox="0 0 72 93" id="logoVerticle" xmlns="http://www.w3.org/2000/svg"><path fill-rule="evenodd" clip-rule="evenodd" d="M.074 28.209h8.64L37.243 8.392l15.325 19.734c.036-.605.06-1.21.06-1.814C52.627 11.841 40.786 0 26.314 0S.003 11.84.003 26.312c0 .64.023 1.269.07 1.897z"/><path fill-rule="evenodd" clip-rule="evenodd" d="M.298 30.247h8.416l28.422-17.85L52.39 29.905c-.06.415-.13.841-.213 1.256L37.136 15.195 8.5 31.635H.547a25.778 25.778 0 01-.249-1.388z"/><path fill-rule="evenodd" clip-rule="evenodd" d="M1.022 33.566H8.5l28.636-14.258L51.82 32.76c-.095.415-.213.818-.332 1.21L37.136 22.08 8.5 35.024H1.496a25.91 25.91 0 01-.474-1.458z"/><path fill-rule="evenodd" clip-rule="evenodd" d="M2.954 38.378H8.5l28.636-9.458 13.251 7.988c.19-.414.356-.83.521-1.256l-13.772-9.541L8.5 36.98l-6.258-.083c.226.51.45.995.712 1.481z"/><path fill-rule="evenodd" clip-rule="evenodd" d="M4.957 41.626H8.5l28.636-5.832 11.568 4.303c.284-.462.557-.937.818-1.41l-12.386-5.678L8.5 40.156l-4.527.012c.308.498.64.984.984 1.458z"/><path fill-rule="evenodd" clip-rule="evenodd" d="M6.486 43.57H8.5l28.636-3.627 10.11 2.275a27 27 0 01-1.399 1.683l-8.711-1.185L8.5 44.873h-.794c-.415-.426-.83-.853-1.22-1.303z"/><path d="M6.914 63.44h1.988v3.8a5.58 5.58 0 01-1.776.883 6.57 6.57 0 01-2.01.306c-.977 0-1.847-.2-2.623-.624A4.583 4.583 0 01.67 66.088C.223 65.346 0 64.51 0 63.582c0-.918.223-1.753.67-2.494a4.538 4.538 0 011.835-1.718c.788-.424 1.67-.624 2.645-.624.824 0 1.564.13 2.235.412a4.36 4.36 0 011.681 1.2L7.68 61.652c-.67-.706-1.47-1.059-2.423-1.059-.6 0-1.129.118-1.587.377-.47.247-.823.6-1.082 1.047-.259.459-.388.976-.388 1.565 0 .588.13 1.106.388 1.553.259.459.611.811 1.07 1.07.459.247.988.377 1.576.377.623 0 1.187-.13 1.681-.4V63.44zm6.891-4.54h2.164v7.6h4.691v1.776h-6.855v-9.377zm15.345 9.529c-.964 0-1.846-.212-2.622-.624a4.75 4.75 0 01-1.834-1.74c-.435-.73-.659-1.554-.659-2.483 0-.918.224-1.742.659-2.483a4.808 4.808 0 011.834-1.729c.776-.412 1.658-.624 2.622-.624.976 0 1.847.212 2.623.624a4.81 4.81 0 011.834 1.73c.447.74.67 1.564.67 2.482 0 .93-.223 1.753-.67 2.482a4.751 4.751 0 01-1.834 1.741c-.776.412-1.647.624-2.623.624zm0-1.847c.553 0 1.059-.13 1.506-.377.446-.259.8-.611 1.046-1.07.259-.447.388-.965.388-1.553 0-.577-.13-1.094-.388-1.541a2.695 2.695 0 00-1.046-1.071c-.447-.259-.953-.377-1.506-.377-.552 0-1.046.118-1.493.377a2.7 2.7 0 00-1.047 1.07c-.258.448-.388.965-.388 1.542 0 .588.13 1.106.388 1.553.247.459.6.811 1.047 1.07.447.247.94.377 1.493.377zm16.534-3.177c.54.165.952.447 1.258.847.305.4.458.883.458 1.46 0 .823-.317 1.458-.964 1.893-.635.447-1.564.67-2.787.67h-4.833V58.9h4.575c1.14 0 2.01.224 2.622.66.611.434.917 1.035.917 1.776 0 .459-.106.87-.33 1.223a2.289 2.289 0 01-.916.847zm-4.716-2.87v2.211h2.152c.53 0 .94-.094 1.211-.282.282-.188.423-.47.423-.835s-.14-.636-.423-.824c-.27-.176-.682-.27-1.211-.27h-2.152zm2.528 6.106c.565 0 1-.095 1.282-.283.294-.188.435-.482.435-.87 0-.777-.576-1.165-1.717-1.165h-2.528v2.318h2.528zm14.617-.377h-4.351l-.835 2.012h-2.21l4.174-9.377h2.14l4.186 9.377h-2.281l-.823-2.012zm-.682-1.647l-1.494-3.588-1.481 3.588h2.975zm7.655-5.718h2.175v7.6h4.692v1.777h-6.867v-9.377zM.588 71.064h2.175v9.365H.588v-9.365zm17.38 0v9.365h-1.776l-4.668-5.683v5.683h-2.14v-9.365h1.787l4.657 5.682v-5.682h2.14zm15.568 0l-4.045 9.365h-2.14l-4.045-9.365h2.34l2.858 6.694 2.88-6.694h2.152zm12.43 7.624v1.74h-7.244v-9.364h7.08v1.741h-4.928v2.035h4.35v1.683h-4.35v2.165h5.092zm9.207 1.906a7.59 7.59 0 01-2.14-.306c-.694-.2-1.247-.46-1.67-.777l.74-1.635c.4.294.871.53 1.424.706.552.176 1.105.27 1.658.27.623 0 1.07-.094 1.364-.27.294-.188.447-.436.447-.73a.752.752 0 00-.26-.564 2.245 2.245 0 00-.67-.353c-.27-.083-.646-.189-1.105-.294a15.302 15.302 0 01-1.752-.506 2.904 2.904 0 01-1.176-.812c-.317-.377-.482-.882-.482-1.506 0-.541.141-1.035.435-1.47.294-.448.741-.8 1.34-1.06.589-.258 1.318-.388 2.164-.388.6 0 1.188.071 1.752.212.577.153 1.07.353 1.506.624l-.67 1.647c-.87-.494-1.73-.742-2.6-.742-.599 0-1.046.095-1.34.295-.294.2-.435.459-.435.776 0 .318.165.565.506.718.329.153.846.306 1.528.459a18.16 18.16 0 011.752.505c.46.177.847.448 1.165.812.329.365.493.86.493 1.483 0 .529-.152 1.023-.446 1.458-.306.448-.753.8-1.34 1.06-.6.258-1.33.388-2.188.388zm11.665-7.765h-2.999v-1.765H72v1.765h-2.987v7.6h-2.175v-7.6zM6.914 87.759h1.988v3.8a5.581 5.581 0 01-1.776.882 6.57 6.57 0 01-2.01.305c-.977 0-1.847-.2-2.623-.623A4.583 4.583 0 01.67 90.405C.223 89.665 0 88.83 0 87.911c0-.93.223-1.765.67-2.506a4.539 4.539 0 011.835-1.717c.788-.424 1.67-.624 2.645-.624a5.9 5.9 0 012.235.412 4.48 4.48 0 011.681 1.2L7.68 85.97c-.67-.706-1.47-1.059-2.423-1.059-.6 0-1.129.118-1.587.377-.47.247-.823.6-1.082 1.047-.259.459-.388.976-.388 1.576 0 .577.13 1.094.388 1.541.259.46.611.812 1.07 1.07.459.26.988.377 1.576.377.623 0 1.187-.129 1.681-.4v-2.74zm12.7 4.835l-1.8-2.612h-1.998v2.612h-2.164v-9.377h4.057c.823 0 1.54.141 2.152.424.611.27 1.082.67 1.41 1.176.33.506.495 1.106.495 1.8s-.165 1.294-.494 1.8c-.341.506-.811.894-1.423 1.165l2.093 3.012h-2.328zm-.035-5.977c0-.518-.165-.93-.506-1.212-.341-.282-.835-.412-1.493-.412h-1.764v3.26h1.764c.658 0 1.152-.142 1.493-.424.341-.294.506-.694.506-1.212zm11.182 6.13c-.964 0-1.846-.212-2.622-.624a4.808 4.808 0 01-1.834-1.73 4.806 4.806 0 01-.659-2.482c0-.93.224-1.753.659-2.482a4.75 4.75 0 011.834-1.741c.776-.412 1.658-.624 2.622-.624.976 0 1.847.212 2.623.624a4.75 4.75 0 011.834 1.74c.447.73.67 1.554.67 2.483 0 .918-.223 1.741-.67 2.483a4.808 4.808 0 01-1.834 1.729c-.776.412-1.647.623-2.623.623zm0-1.848c.553 0 1.059-.117 1.506-.376.446-.259.8-.612 1.046-1.07.259-.448.388-.965.388-1.542 0-.588-.13-1.106-.388-1.553a2.696 2.696 0 00-1.047-1.07 3.072 3.072 0 00-1.505-.377c-.552 0-1.046.13-1.493.377-.447.258-.8.611-1.047 1.07-.258.447-.388.965-.388 1.553 0 .577.13 1.094.389 1.541.246.46.6.812 1.046 1.07.447.26.94.377 1.493.377zm13.664 1.847c-1.328 0-2.375-.364-3.116-1.105-.752-.742-1.117-1.8-1.117-3.177v-5.247h2.164v5.165c0 1.682.694 2.517 2.093 2.517.67 0 1.188-.2 1.54-.6.365-.411.541-1.047.541-1.917v-5.165h2.14v5.247c0 1.377-.376 2.435-1.117 3.177-.74.74-1.787 1.105-3.128 1.105zm13.182-9.529c.835 0 1.552.141 2.164.424.611.27 1.081.67 1.41 1.176.33.506.495 1.106.495 1.8s-.165 1.294-.494 1.8c-.33.518-.8.906-1.411 1.177-.612.282-1.33.411-2.164.411h-1.881v2.589h-2.164v-9.377h4.045zm-.117 5.023c.658 0 1.152-.14 1.481-.423.341-.282.518-.682.518-1.2 0-.518-.177-.93-.518-1.212-.33-.282-.823-.412-1.481-.412h-1.764v3.248h1.764z"/></svg><svg viewBox="0 0 50 42" id="logoWhite" xmlns="http://www.w3.org/2000/svg"><path fill-rule="evenodd" clip-rule="evenodd" d="M.068 26.403h8.209L35.383 7.854l14.56 18.471A27.48 27.48 0 0050 24.628C50 11.082 38.75 0 25 0S0 11.082 0 24.628c0 .599.023 1.187.068 1.775z"/><path fill-rule="evenodd" clip-rule="evenodd" d="M.281 28.311h7.996L35.28 11.605 49.775 27.99c-.057.388-.124.787-.203 1.176l-14.29-14.943L8.073 29.609H.518a22.2 22.2 0 01-.237-1.298z"/><path fill-rule="evenodd" clip-rule="evenodd" d="M.968 31.417h7.106L35.28 18.07l13.953 12.591c-.09.389-.203.766-.316 1.132L35.281 20.667 8.074 32.781H1.418a24.265 24.265 0 01-.45-1.364z"/><path fill-rule="evenodd" clip-rule="evenodd" d="M2.803 35.921h5.27L35.28 27.07l12.59 7.477c.18-.389.338-.777.496-1.176L35.28 24.44 8.073 34.611l-5.946-.077c.214.477.428.932.676 1.386z"/><path fill-rule="evenodd" clip-rule="evenodd" d="M4.706 38.961h3.367l27.208-5.458 10.99 4.027c.27-.433.53-.876.777-1.32l-11.767-5.314-27.208 6.69-4.302.01c.293.466.609.921.935 1.365z"/><path fill-rule="evenodd" clip-rule="evenodd" d="M6.16 40.78h1.914l27.207-3.395 9.606 2.13a25.317 25.317 0 01-1.329 1.575l-8.277-1.109-27.207 2.02H7.32c-.395-.4-.789-.8-1.16-1.221z"/></svg><svg viewBox="0 0 59 68" id="play" xmlns="http://www.w3.org/2000/svg"><path d="M57 37.464c2.667-1.54 2.667-5.389 0-6.928L6 1.09C3.333-.45 0 1.475 0 4.554v58.89c0 3.08 3.333 5.004 6 3.464l51-29.445z"/></svg><svg viewBox="0 0 18 23" id="search" xmlns="http://www.w3.org/2000/svg"><path d="M6.36 14.33L1 22M17 8.191c0 3.972-3.273 7.192-7.31 7.192-4.037 0-7.31-3.22-7.31-7.192C2.38 4.22 5.653 1 9.69 1 13.727 1 17 4.22 17 8.191z"/></svg><svg viewBox="0 0 22 13" id="select" xmlns="http://www.w3.org/2000/svg"><path d="M1 1.5l10 10 10-10"/></svg><svg viewBox="0 0 23 24" id="tg" xmlns="http://www.w3.org/2000/svg"><path d="M1.849 10.037L14.953 3.21c1.294-.711 5.681-2.987 5.681-2.987s2.025-.996 1.856 1.422c-.056.996-.506 4.48-.956 8.25l-1.406 11.164s-.113 1.636-1.069 1.92c-.956.285-2.53-.995-2.812-1.28-.225-.213-4.218-3.413-5.68-4.978-.394-.427-.844-1.28.056-2.275 2.024-2.347 4.443-5.263 5.905-7.112.675-.853 1.35-2.844-1.462-.426l-7.93 6.755s-.9.711-2.588.071c-1.687-.64-3.655-1.493-3.655-1.493s-1.35-1.067.956-2.204z"/></svg><svg viewBox="0 0 154 88" id="vector" xmlns="http://www.w3.org/2000/svg"><path d="M0 43.925c0 8.014 1.95 15.41 5.852 22.192 3.901 6.78 9.24 12.123 16.015 16.027C28.643 86.048 36.035 88 44.043 88c4.825 0 9.753-.925 14.784-2.774-4.723-5.856-8.368-12.38-10.934-19.572-1.745.206-3.029.308-3.85.308-6.057 0-11.242-2.157-15.554-6.472-4.312-4.315-6.468-9.504-6.468-15.565 0-6.062 2.156-11.25 6.468-15.565 4.312-4.315 9.497-6.473 15.554-6.473s11.242 2.158 15.553 6.473c4.312 4.315 6.468 9.503 6.468 15.565 0 8.014 1.951 15.41 5.852 22.192 3.901 6.78 9.24 12.123 16.016 16.027C94.708 86.048 102.048 88 109.953 88c7.905 0 15.297-1.952 22.176-5.856 6.878-3.904 12.217-9.247 16.015-16.028 3.799-6.78 5.749-14.178 5.852-22.191.103-8.014-1.848-15.36-5.852-22.038-4.004-6.678-9.342-12.02-16.015-16.027-6.673-4.007-14.065-5.959-22.176-5.856-4.825 0-9.753.873-14.783 2.62 4.722 5.856 8.367 12.431 10.933 19.726 1.746-.309 3.029-.463 3.85-.463 6.057 0 11.242 2.158 15.554 6.473 4.312 4.315 6.468 9.503 6.468 15.565 0 6.164-2.156 11.404-6.468 15.719-4.312 4.315-9.497 6.421-15.554 6.318-6.057 0-11.242-2.106-15.553-6.318-4.312-4.212-6.468-9.452-6.468-15.72 0-7.91-1.95-15.256-5.852-22.037-3.901-6.78-9.24-12.123-16.016-16.027C59.29 1.956 51.948.004 44.043.004c-7.905 0-15.297 1.952-22.175 5.856C14.989 9.764 9.65 15.107 5.852 21.887 2.053 28.668.102 36.014 0 43.925z"/></svg></svg>